<?xml version="1.0" encoding="utf-8"?>
<!-- Generator: Adobe Illustrator 19.0.0, SVG Export Plug-In . SVG Version: 6.00 Build 0)  -->
<svg version="1.1" id="圖層_1" xmlns="http://www.w3.org/2000/svg" xmlns:xlink="http://www.w3.org/1999/xlink" x="0px" y="0px"
	 viewBox="0 0 841.9 595.3" style="enable-background:new 0 0 841.9 595.3;" xml:space="preserve">
<style type="text/css">
	.st0{fill:#FFFFFF;}
	.st1{fill:none;stroke:#000000;stroke-width:7;stroke-miterlimit:10;}
	.st2{fill:#F5DECE;}
	.st3{fill:#FFFFFF;stroke:#000000;stroke-width:0.5;stroke-miterlimit:10;}
	.st4{fill:none;stroke:#000000;stroke-width:6;stroke-miterlimit:10;}
	.st5{fill:#040000;}
</style>
<g id="XMLID_84_">
	<g id="XMLID_73_">
		<polygon id="XMLID_71_" class="st0" points="432.2,260.5 489.3,214.2 510.4,222.3 509.4,245.2 501.9,267.1 487.7,285.3 
			467.6,294.7 436.1,288.6 		"/>
		<g id="XMLID_74_">
			<path id="XMLID_70_" class="st0" d="M487.7,285.3c-0.5,11.6-13.9,15.4-20.1,9.4"/>
			<path id="XMLID_69_" d="M487.7,285.3c0.7,2.4,0.4,5.3-0.9,7.7c-1.3,2.4-3.4,4.3-5.8,5.3c-2.4,1.1-5,1.3-7.5,0.8
				c-1.2-0.3-2.4-0.8-3.5-1.5c-1-0.7-1.9-1.7-2.5-2.8c2.2,0.9,4.3,1.2,6.3,1.1c2-0.1,3.9-0.6,5.7-1.4c1.8-0.8,3.4-1.9,4.8-3.4
				c0.7-0.7,1.3-1.6,1.9-2.6C486.8,287.6,487.3,286.5,487.7,285.3"/>
			<path id="XMLID_68_" class="st0" d="M501.9,267.1c2.8,15.5-14.4,20.6-21.8,16.1"/>
			<path id="XMLID_67_" d="M501.9,267.1c1.3,2.7,1.7,6.1,0.7,9.2c-0.5,1.6-1.3,3.1-2.3,4.3c-1,1.3-2.2,2.3-3.5,3.2
				c-2.6,1.7-5.7,2.5-8.6,2.5c-1.5,0-3-0.2-4.4-0.7c-1.4-0.5-2.7-1.3-3.7-2.4c1.4,0.3,2.7,0.4,4,0.4c1.3-0.1,2.6-0.2,3.8-0.5
				c2.5-0.6,4.8-1.5,6.9-2.8c2.1-1.3,3.8-3,5-5.2C501,272.9,501.6,270.2,501.9,267.1"/>
			<path id="XMLID_66_" class="st0" d="M509.4,245.2c10.7,9.6-3.7,20.4-11.7,24.3c-0.7,0.3-1.3,0.6-2,0.9"/>
			<path id="XMLID_65_" d="M509.4,245.2c1.3,0.6,2.6,1.5,3.6,2.8c1,1.3,1.7,3,1.8,4.8c0.1,1.8-0.4,3.6-1,5.1
				c-0.7,1.5-1.6,2.9-2.7,4.1c-2.1,2.4-4.5,4.2-7.1,5.6c-2.6,1.4-5.4,2.4-8.3,2.7c1.1-1,2.3-1.9,3.4-2.8c1.1-0.9,2.2-1.8,3.2-2.7
				c2.1-1.8,4.1-3.7,5.9-5.7c1.7-2,3.2-4.1,3.5-6.5c0.2-1.2,0.1-2.4-0.3-3.7C510.9,247.8,510.2,246.5,509.4,245.2"/>
			<path id="XMLID_64_" class="st0" d="M467.6,294.7c-7.3,16.1-28.1,9.7-31.6-6.2"/>
			<path id="XMLID_63_" d="M467.6,294.7c-0.4,1.9-1.1,3.7-2.2,5.3c-1.1,1.6-2.6,3-4.3,4.1c-1.7,1-3.6,1.7-5.6,1.9
				c-2,0.2-3.9,0.1-5.8-0.4c-3.8-0.9-7.2-3.2-9.7-6.3c-2.5-3-4-7-4-10.8c1.6,3.4,3.7,6.3,6.2,8.5c2.5,2.2,5.4,3.7,8.4,4.5
				c3,0.8,6.2,0.7,9.1-0.4C462.8,300,465.4,297.7,467.6,294.7"/>
			<path id="XMLID_62_" class="st0" d="M510.4,222.3c6.3-2.3,10.6,1.6,9.2,8.3c-1.9,11.4-18.1,21.3-27.9,24.1"/>
			<path id="XMLID_61_" d="M510.4,222.3c1-0.6,2.1-1,3.2-1.2c1.2-0.2,2.4-0.1,3.7,0.4c1.2,0.5,2.3,1.5,3,2.7c0.7,1.2,1,2.7,1.1,4
				c0,0.7,0,1.4-0.1,2c0,0.2,0,0.3-0.1,0.5l-0.1,0.4c0,0.3-0.1,0.7-0.2,1c-0.3,1.3-0.7,2.5-1.2,3.7c-1.1,2.3-2.5,4.4-4.1,6.2
				c-3.2,3.6-7.1,6.4-11.1,8.5c-2,1.1-4.1,2-6.3,2.7c-1.1,0.4-2.2,0.7-3.3,0.9c-1.1,0.2-2.2,0.4-3.3,0.5c4-2.1,7.8-4.4,11.3-7
				c3.6-2.6,7-5.3,9.8-8.5c1.4-1.6,2.7-3.3,3.7-5.1c0.5-0.9,0.9-1.9,1.2-2.8c0.1-0.2,0.1-0.5,0.2-0.7l0.2-0.8c0.1-0.5,0.2-1,0.2-1.5
				c0.2-1.9-0.4-3.8-1.9-4.9c-0.8-0.6-1.7-0.9-2.8-1.1C512.6,222.1,511.5,222.1,510.4,222.3"/>
			<path id="XMLID_60_" class="st0" d="M436.2,255.7c10.5-35.4,62.3-62.6,84.5-61.5c3.9,0.2,9.3,0.8,10.2,6.2c0.2,2.2-1,3.6-1.6,5.1
				c-6.6,9.1-24.2,20.4-33.5,25.9"/>
			<path id="XMLID_59_" d="M436.2,255.7c0.6-2.7,1.5-5.4,2.6-7.9c1.1-2.6,2.3-5,3.8-7.4c2.8-4.8,6.2-9.2,9.9-13.2
				c3.7-4,7.7-7.7,11.9-11.2c4.2-3.4,8.7-6.5,13.3-9.3c4.6-2.8,9.3-5.3,14.2-7.5c4.9-2.2,9.9-4,15.1-5.4c2.6-0.7,5.3-1.2,8-1.5
				c1.4-0.2,2.7-0.2,4.1-0.2c1.4,0,2.7,0.1,4.1,0.3c1.4,0.2,2.8,0.5,4.3,1.1c0.7,0.3,1.4,0.7,2.1,1.2c0.7,0.5,1.3,1.2,1.7,2
				c0.5,0.8,0.8,1.6,1,2.5c0.1,0.2,0.1,0.4,0.1,0.6l0,0.3l0,0.2l0,0l0,0.1l0,0.2c0,0.5,0,1-0.1,1.5c-0.2,0.9-0.5,1.8-0.9,2.5
				c-0.4,0.7-0.7,1.3-1,1.8l-0.1,0.2l-0.1,0.1c-1.2,1.5-2.4,2.9-3.7,4.2c-1.3,1.3-2.7,2.5-4.1,3.6c-2.8,2.3-5.7,4.4-8.6,6.4
				c-3,2-6,3.9-9,5.6c-3.1,1.8-6.1,3.5-9.3,5.1c2.9-2,5.8-4,8.7-6.1c2.9-2.1,5.7-4.2,8.5-6.4c2.8-2.2,5.5-4.4,8.1-6.8
				c2.6-2.4,5.1-4.9,7-7.7l-0.2,0.3c0.3-0.8,0.7-1.3,0.9-1.9c0.3-0.5,0.4-1,0.5-1.4c0-0.5,0-0.8-0.1-1.3c-0.1-0.5-0.3-0.9-0.6-1.3
				c-0.5-0.8-1.3-1.4-2.3-1.7c-1-0.4-2.2-0.6-3.4-0.7c-1.2-0.1-2.5-0.2-3.7-0.2c-1.2,0-2.5,0.1-3.7,0.3c-2.5,0.3-5,0.8-7.4,1.5
				c-4.9,1.3-9.8,3.1-14.6,5.2c-4.7,2.1-9.4,4.5-13.9,7.1c-4.5,2.6-8.9,5.5-13.1,8.7c-4.2,3.1-8.3,6.6-12.1,10.3
				c-3.8,3.7-7.3,7.8-10.4,12.2C440.8,245.7,438.1,250.5,436.2,255.7"/>
			<polygon id="XMLID_58_" class="st0" points="374.8,260.5 317.6,214.2 296.6,222.3 297.5,245.2 305.1,267.1 319.2,285.3 
				339.3,294.7 370.9,288.6 			"/>
			<path id="XMLID_57_" class="st0" d="M319.2,285.3c0.5,11.6,13.9,15.4,20.1,9.4"/>
			<path id="XMLID_56_" d="M319.2,285.3c0.5,1.2,0.9,2.2,1.5,3.2c0.6,1,1.2,1.8,1.9,2.6c1.4,1.5,3,2.6,4.8,3.4
				c1.8,0.8,3.7,1.3,5.7,1.4c2,0.1,4-0.2,6.3-1.1c-0.6,1.1-1.5,2.1-2.5,2.8c-1,0.7-2.2,1.2-3.5,1.5c-2.5,0.6-5.1,0.3-7.5-0.8
				c-2.4-1-4.5-2.9-5.8-5.3C318.8,290.6,318.5,287.8,319.2,285.3"/>
			<path id="XMLID_55_" class="st0" d="M305.1,267.1c-2.8,15.5,14.4,20.6,21.8,16.1"/>
			<path id="XMLID_54_" d="M305.1,267.1c0.3,3,0.9,5.7,2.1,7.9c1.2,2.2,2.9,3.9,5,5.2c2.1,1.3,4.4,2.2,6.9,2.8
				c1.2,0.3,2.5,0.5,3.8,0.5c1.3,0,2.6,0,4-0.4c-1,1.1-2.3,1.9-3.7,2.4c-1.4,0.5-2.9,0.7-4.4,0.7c-3,0-6-0.8-8.6-2.5
				c-1.3-0.9-2.5-1.9-3.5-3.2c-1-1.3-1.8-2.8-2.3-4.3C303.4,273.2,303.7,269.8,305.1,267.1"/>
			<path id="XMLID_53_" class="st0" d="M297.5,245.2c-10.7,9.6,3.7,20.4,11.7,24.3c0.7,0.3,1.3,0.6,2,0.9"/>
			<path id="XMLID_52_" d="M297.5,245.2c-0.8,1.3-1.5,2.6-1.9,3.9c-0.4,1.3-0.5,2.5-0.3,3.7c0.4,2.3,1.8,4.5,3.5,6.5
				c1.7,2,3.8,3.8,5.9,5.7c1.1,0.9,2.1,1.8,3.2,2.7c1.1,0.9,2.2,1.8,3.4,2.8c-2.9-0.3-5.7-1.3-8.3-2.7c-2.6-1.4-5-3.2-7.1-5.6
				c-1-1.2-2-2.5-2.7-4.1c-0.7-1.5-1.2-3.3-1-5.1c0.1-1.8,0.8-3.5,1.8-4.8C295,246.7,296.2,245.8,297.5,245.2"/>
			<path id="XMLID_51_" class="st0" d="M339.3,294.7c7.3,16.1,28.1,9.7,31.6-6.2"/>
			<path id="XMLID_50_" d="M339.3,294.7c2.2,3,4.9,5.3,7.8,6.4c2.9,1.1,6.1,1.2,9.1,0.4c3-0.8,5.9-2.3,8.4-4.5
				c2.5-2.2,4.6-5,6.2-8.5c0,3.9-1.5,7.8-4,10.8c-2.5,3.1-5.9,5.3-9.7,6.3c-1.9,0.5-3.9,0.6-5.8,0.4c-1.9-0.2-3.9-0.9-5.6-1.9
				c-1.7-1-3.2-2.4-4.3-4.1C340.4,298.4,339.7,296.6,339.3,294.7"/>
			<path id="XMLID_49_" class="st0" d="M296.6,222.3c-6.3-2.3-10.6,1.6-9.2,8.3c1.9,11.4,18.1,21.3,27.9,24.1"/>
			<path id="XMLID_48_" d="M296.6,222.3c-1.1-0.2-2.2-0.2-3.2-0.1c-1,0.1-2,0.5-2.8,1.1c-1.5,1.1-2.1,3-1.9,4.9c0,0.5,0.1,1,0.2,1.5
				l0.2,0.8c0.1,0.2,0.1,0.5,0.2,0.7c0.3,1,0.7,1.9,1.2,2.8c1,1.8,2.2,3.5,3.7,5.1c2.9,3.2,6.3,6,9.8,8.5c3.6,2.5,7.3,4.9,11.3,7
				c-1.1-0.1-2.2-0.3-3.3-0.5c-1.1-0.2-2.2-0.6-3.3-0.9c-2.2-0.7-4.3-1.6-6.3-2.7c-4.1-2.1-7.9-4.9-11.1-8.5
				c-1.6-1.8-3.1-3.9-4.1-6.2c-0.5-1.2-1-2.4-1.2-3.7c-0.1-0.3-0.1-0.7-0.2-1l-0.1-0.4c0-0.2,0-0.3-0.1-0.5c-0.1-0.7-0.1-1.4-0.1-2
				c0.1-1.4,0.4-2.8,1.1-4c0.7-1.2,1.8-2.2,3-2.7c1.2-0.5,2.5-0.6,3.7-0.4C294.5,221.2,295.6,221.7,296.6,222.3"/>
			<path id="XMLID_47_" class="st0" d="M370.7,255.7c-10.5-35.4-62.3-62.6-84.5-61.5c-3.9,0.2-9.3,0.8-10.2,6.2
				c-0.2,2.2,1,3.6,1.6,5.1c6.6,9.1,24.2,20.4,33.5,25.9"/>
			<path id="XMLID_46_" d="M370.7,255.7c-1.9-5.2-4.5-10-7.6-14.4c-3.1-4.4-6.6-8.4-10.4-12.2c-3.8-3.7-7.8-7.1-12.1-10.3
				c-4.2-3.2-8.6-6.1-13.1-8.7c-4.5-2.6-9.2-5-13.9-7.1c-4.8-2.1-9.6-3.9-14.6-5.2c-2.5-0.7-5-1.2-7.5-1.5c-1.2-0.2-2.5-0.3-3.7-0.3
				c-1.2,0-2.5,0-3.7,0.2c-1.2,0.1-2.4,0.3-3.4,0.7c-1,0.4-1.8,1-2.3,1.7c-0.3,0.4-0.5,0.8-0.6,1.3c-0.2,0.6-0.2,0.8-0.1,1.3
				c0.1,0.4,0.2,0.9,0.5,1.4c0.2,0.5,0.6,1.1,0.9,1.9l-0.2-0.3c1.9,2.8,4.5,5.3,7,7.7c2.6,2.4,5.3,4.6,8.1,6.8
				c2.8,2.2,5.6,4.3,8.5,6.4c2.9,2.1,5.8,4.1,8.7,6.1c-3.1-1.6-6.2-3.3-9.3-5.1c-3.1-1.8-6.1-3.7-9-5.6c-2.9-2-5.8-4.1-8.6-6.4
				c-1.4-1.1-2.8-2.3-4.1-3.6c-1.3-1.3-2.6-2.6-3.7-4.2l-0.1-0.1l-0.1-0.2c-0.2-0.5-0.6-1.1-1-1.8c-0.4-0.7-0.7-1.5-0.9-2.5
				c-0.1-0.5-0.1-0.9-0.1-1.5l0-0.2l0-0.1l0,0l0-0.2l0-0.3c0-0.2,0.1-0.4,0.1-0.6c0.2-0.8,0.5-1.7,1-2.5c0.5-0.8,1.1-1.4,1.7-2
				c0.7-0.5,1.4-0.9,2.1-1.2c1.4-0.6,2.9-0.9,4.3-1.1c1.4-0.2,2.7-0.3,4.1-0.3c1.4,0,2.7,0.1,4.1,0.2c2.7,0.3,5.3,0.8,8,1.5
				c5.2,1.3,10.2,3.2,15.1,5.4c4.9,2.2,9.6,4.7,14.2,7.5c4.6,2.8,9,5.9,13.3,9.3c4.2,3.4,8.2,7.1,11.9,11.2
				c3.7,4.1,7.1,8.4,9.9,13.2c1.4,2.4,2.7,4.9,3.8,7.4C369.2,250.3,370.1,253,370.7,255.7"/>
			<path id="XMLID_45_" class="st0" d="M370.8,249.2c-8.6,12.4-20.8,18.9-32.5,27.2c-3.6,3-5.4,2.9-4.1,8.3
				c3.4,13.7,28.4,3.5,33.6-2.4"/>
			<path id="XMLID_44_" class="st1" d="M370.8,249.2c-8.6,12.4-20.8,18.9-32.5,27.2c-3.6,3-5.4,2.9-4.1,8.3
				c3.4,13.7,28.4,3.5,33.6-2.4"/>
			<path id="XMLID_43_" class="st0" d="M436.1,247.3c8.6,12.4,20.8,18.9,32.5,27.2c3.6,3,5.4,2.9,4.1,8.3
				c-3.4,13.7-28.4,3.5-33.6-2.4"/>
			<path id="XMLID_42_" class="st1" d="M436.1,247.3c8.6,12.4,20.8,18.9,32.5,27.2c3.6,3,5.4,2.9,4.1,8.3
				c-3.4,13.7-28.4,3.5-33.6-2.4"/>
			<path id="XMLID_41_" class="st0" d="M403.5,241c-35.7,0-40.9,23.5-40.3,37.8c0.6,15.8-8.8,46.2,39.5,46.2
				c50.7,0,40.1-28.2,41.3-43.8C445.1,266.5,438.2,241,403.5,241"/>
			<path id="XMLID_40_" class="st1" d="M403.5,241c-35.7,0-40.9,23.5-40.3,37.8c0.6,15.8-8.8,46.2,39.5,46.2
				c50.7,0,40.1-28.2,41.3-43.8C445.1,266.5,438.2,241,403.5,241z"/>
			<path id="XMLID_39_" d="M372.3,244.6c-0.7,1.4-1.3,2.9-1.8,4.5c-0.5,1.5-1,3.1-1.4,4.6c-0.9,3.1-1.6,6.3-2.1,9.4
				c-0.6,3.2-1,6.4-1.4,9.6c-0.4,3.2-0.6,6.4-0.7,9.6c-0.1,3.2,0,6.4,0.3,9.6c0.3,3.2,0.5,6.3,0.9,9.3c0.4,3.1,1,6.1,2,8.9
				c1,2.8,2.5,5.4,5,7.4l-0.2,0.5c-1.6-0.3-3.1-1.1-4.5-2.2c-1.3-1.1-2.5-2.5-3.4-3.9c-1.9-3-3-6.3-3.8-9.7c-0.7-3.4-1-6.8-1-10.2
				c0.1-3.4,0.4-6.7,0.7-10c0.3-3.3,0.8-6.6,1.4-9.9c0.6-3.3,1.4-6.5,2.2-9.7c0.9-3.2,1.9-6.3,3.1-9.4c1.2-3.1,2.6-6,4.3-8.8
				L372.3,244.6z"/>
			<path id="XMLID_38_" d="M435,244.4c1.7,2.7,3.1,5.7,4.3,8.8c1.2,3.1,2.2,6.2,3.1,9.4c0.9,3.2,1.6,6.4,2.2,9.7
				c0.6,3.3,1.1,6.5,1.4,9.9c0.3,3.3,0.6,6.7,0.7,10c0.1,3.4-0.2,6.8-1,10.2c-0.7,3.3-1.9,6.7-3.8,9.7c-0.9,1.5-2.1,2.8-3.4,3.9
				c-1.3,1.1-2.9,1.9-4.5,2.2l-0.2-0.5c2.5-2,4-4.6,5-7.4c1-2.8,1.6-5.8,2-8.9c0.4-3.1,0.7-6.2,0.9-9.3c0.3-3.2,0.4-6.4,0.3-9.6
				c-0.1-3.2-0.3-6.4-0.7-9.6c-0.3-3.2-0.8-6.4-1.4-9.6c-0.6-3.2-1.3-6.3-2.1-9.4c-0.4-1.6-0.9-3.1-1.4-4.6c-0.5-1.5-1.1-3-1.8-4.5
				L435,244.4z"/>
			<path id="XMLID_37_" d="M385.1,323c3.2-0.1,6.2-0.1,9.3-0.1l9,0l9.1-0.1c3,0,6.1,0,9.3,0.2c-2.9,1.5-5.9,2.4-9,3.1
				c-3.1,0.6-6.2,1-9.4,1c-3.1,0-6.3-0.3-9.4-0.9C391,325.5,388,324.6,385.1,323"/>
			<path id="XMLID_36_" class="st2" d="M423.9,291c0,12.5-4,22.5-21.2,22.6c-17.7,0.2-21.2-10.1-21.2-22.6
				c0-12.5,9.5-22.6,21.2-22.6C414.4,268.3,423.9,278.5,423.9,291"/>
			<path id="XMLID_35_" class="st0" d="M368.3,313.9c2.7,14,7.6,26,10.7,31.6c7.7,13.7,17.6,15.8,22.7,12.9c3.2-1.8-1.4-24.7-3.5-33
				"/>
			<path id="XMLID_34_" d="M366.6,314.4c2.1,10.9,5.4,22,10.7,31.7c4.1,7.6,11.2,15.3,20,15.3c2.1,0,5.4-0.6,6.5-2.8
				c1.3-2.6,0.8-6.4,0.5-9.2c-0.7-8.3-2.4-16.5-4.4-24.5c-0.6-2.3-3.9-1.3-3.3,1c1.7,7,3.2,14.1,4.1,21.2c0.3,2.8,0.8,5.9,0.4,8.7
				c-0.3,2-2.5,2-4.5,1.9c-7.9-0.3-13.8-8.6-17.1-15.3c-4.5-9-7.4-19-9.4-29C369.5,311.1,366.2,312.1,366.6,314.4"/>
			<path id="XMLID_33_" class="st0" d="M438.6,314.8c-2.7,14-7.4,25.2-10.6,30.8c-7.7,13.7-17.6,15.8-22.7,12.9
				c-3.2-1.8,1.4-24.7,3.5-33"/>
			<path id="XMLID_32_" d="M437,314.3c-1.9,9.7-4.9,19.4-9.3,28.2c-3.4,6.9-9.2,14.7-17.1,15.3c-1.2,0.1-2.3-0.1-3.5-0.5
				c-0.9-0.3-0.8-0.2-1-1.1c-0.6-2.8,0-6.2,0.3-9c0.8-7.1,2.3-14.3,4.1-21.2c0.6-2.3-2.8-3.3-3.3-1c-2,8-3.6,16.3-4.4,24.5
				c-0.3,2.7-0.7,6.1,0.3,8.7c1,2.6,4.2,3.1,6.6,3.2c8.8,0.3,15.9-8,20-15.3c5.2-9.4,8.5-20.2,10.6-30.8
				C440.7,313,437.4,312,437,314.3"/>
			<path id="XMLID_31_" class="st0" d="M359.8,164.2c-2.3,4.7-14.4,7-18.6,8.1c-0.3-0.1-0.7-0.2-1-0.3c-0.3,11,18.8,11.7,19.6-1.1"
				/>
			<path id="XMLID_30_" class="st1" d="M359.8,164.2c-2.3,4.7-14.4,7-18.6,8.1c-0.3-0.1-0.7-0.2-1-0.3c-0.3,11,18.8,11.7,19.6-1.1"
				/>
			<path id="XMLID_29_" class="st0" d="M447.1,164.2c2.3,4.7,14.4,7,18.6,8.1c0.3-0.1,0.7-0.2,1-0.3c0.3,11-18.8,11.7-19.6-1.1"/>
			<path id="XMLID_28_" class="st1" d="M447.1,164.2c2.3,4.7,14.4,7,18.6,8.1c0.3-0.1,0.7-0.2,1-0.3c0.3,11-18.8,11.7-19.6-1.1"/>
			<path id="XMLID_27_" class="st0" d="M375.2,163.8c-22.6,0.6-41.5,2.3-44.4-10c-1.6-6.5,2.4-14.1,5.1-19.3
				c2.2-3.7,10.5-15.6,10.2-4.1c-0.1,6.1-1.1,17.4,4.8,18.5c6.2,1.2,15.5,0.8,24.4,0.8"/>
			<path id="XMLID_26_" class="st1" d="M375.2,163.8c-22.6,0.6-41.5,2.3-44.4-10c-1.6-6.5,2.4-14.1,5.1-19.3
				c2.2-3.7,10.5-15.6,10.2-4.1c-0.1,6.1-1.1,17.4,4.8,18.5c6.2,1.2,15.5,0.8,24.4,0.8"/>
			<path id="XMLID_25_" class="st0" d="M431.8,163.8c22.6,0.6,41.5,2.3,44.4-10c1.6-6.5-2.4-14.1-5.1-19.3
				c-2.2-3.7-10.5-15.6-10.2-4.1c0.1,6.1,1.1,17.4-4.8,18.5c-6.2,1.2-15.5,0.8-24.4,0.8"/>
			<path id="XMLID_24_" class="st1" d="M431.8,163.8c22.6,0.6,41.5,2.3,44.4-10c1.6-6.5-2.4-14.1-5.1-19.3
				c-2.2-3.7-10.5-15.6-10.2-4.1c0.1,6.1,1.1,17.4-4.8,18.5c-6.2,1.2-15.5,0.8-24.4,0.8"/>
			<path id="XMLID_23_" class="st0" d="M453.4,230v-41.4c0-28.2-12.9-51-49.9-51c-37.6,0-49.9,18.7-49.9,51V230H453.4z"/>
			<path id="XMLID_22_" class="st1" d="M453.4,230v-41.4c0-28.2-12.9-51-49.9-51c-37.6,0-49.9,18.7-49.9,51V230H453.4z"/>
			<path id="XMLID_21_" class="st1" d="M453.4,231.5v-41.4c0-28.2-12.9-51-49.9-51c-37.6,0-49.9,18.7-49.9,51v41.4H453.4z"/>
			<path id="XMLID_20_" class="st3" d="M403.5,258c7.4,0,11.1,0.8,15.3,1.9c5.9,1.8,11.6,2.6,17.7,1.5c14.3-2.6,22.4-13.8,20.7-28.6
				c-1.7-15.8-12.6-23.2-26.1-28.6c-5.9-2.3-21.2-3.6-27.4-3.6c-6.3,0-21.9,1.3-27.9,3.6c-13.6,5.4-24.4,12.8-26.1,28.6
				c-1.7,14.8,6.4,26,20.7,28.6c6.2,1,11.8,0.3,17.7-1.5C392.4,258.9,396.1,258,403.5,258"/>
			<path id="XMLID_19_" class="st1" d="M403.5,258c7.4,0,11.1,0.8,15.3,1.9c5.9,1.8,11.6,2.6,17.7,1.5c14.3-2.6,22.4-13.8,20.7-28.6
				c-1.7-15.8-12.6-23.2-26.1-28.6c-5.9-2.3-21.2-3.6-27.4-3.6c-6.3,0-21.9,1.3-27.9,3.6c-13.6,5.4-24.4,12.8-26.1,28.6
				c-1.7,14.8,6.4,26,20.7,28.6c6.2,1,11.8,0.3,17.7-1.5C392.4,258.9,396.1,258,403.5,258z"/>
			<path id="XMLID_18_" class="st1" d="M403.5,256.7c7.3,0,11,0.8,15.1,1.8c5.9,1.7,11.5,2.5,17.6,1.5c14.2-2.5,22.2-13.5,20.5-27.9
				c-1.7-15.5-12.4-22.7-25.9-27.9c-5.9-2.2-21-3.5-27.1-3.5c-6.3,0-21.7,1.2-27.6,3.5c-13.4,5.2-24.2,12.5-25.9,27.9
				c-1.7,14.5,6.3,25.4,20.5,27.9c6.1,1,11.7,0.2,17.6-1.5C392.5,257.5,396.2,256.7,403.5,256.7z"/>
			<path id="XMLID_17_" d="M436.6,172.9c0.1,1.6-0.7,3-1.9,3.1l-20.6,1.3c-1.1,0.1-1.4-3.3-0.4-3.8c6.5-3.3,20.3-10.5,20.3-10.5
				c1.1-0.1,2.1,1.2,2.2,2.8L436.6,172.9z"/>
			<path id="XMLID_16_" d="M370.3,172.9c-0.1,1.6,0.7,3,1.9,3.1l20.6,1.3c1.1,0.1,1.4-3.3,0.4-3.8c-6.5-3.3-20.3-10.5-20.3-10.5
				c-1.1-0.1-2.1,1.2-2.2,2.8L370.3,172.9z"/>
			<path id="XMLID_15_" d="M424,193.4c0,2.4-1.8,4.3-4.1,4.3c-2.2,0-4.1-1.9-4.1-4.3v-4.2c0-2.4,1.8-4.3,4.1-4.3
				c2.2,0,4.1,1.9,4.1,4.3V193.4z"/>
			<path id="XMLID_14_" d="M391,193.4c0,2.4-1.8,4.3-4.1,4.3c-2.2,0-4.1-1.9-4.1-4.3v-4.2c0-2.4,1.8-4.3,4.1-4.3
				c2.2,0,4.1,1.9,4.1,4.3V193.4z"/>
			<path id="XMLID_13_" d="M392.7,358.8c3.2-1.1,7-2.1,10.3-2.7c0,0.5-1.3,5.1-1.3,5.1C398.4,360.9,396.6,360,392.7,358.8"/>
			<path id="XMLID_12_" d="M393.2,360.6c3.4-1.1,6.8-2,10.3-2.7c-0.7-0.6-1.5-1.2-2.2-1.8c0-0.4-0.2,0.7-0.2,0.8
				c-0.1,0.6-0.3,1.1-0.5,1.7c-0.2,0.7-0.4,1.4-0.6,2.2l1.7-1.4c-2.9-0.3-5.7-1.5-8.5-2.3c-2.1-0.7-3,2.9-0.9,3.5
				c3.1,1,6.1,2.1,9.4,2.5c0.8,0.1,1.5-0.6,1.7-1.4c0.5-1.8,1.2-3.7,1.4-5.6c0.1-1.3-1.2-2-2.2-1.8c-3.5,0.6-6.9,1.6-10.3,2.7
				C390.1,357.7,391,361.3,393.2,360.6"/>
			<path id="XMLID_11_" d="M415,358.5c-3.2-1.1-7-1.8-10.3-2.4c0,0.5,1.3,5.1,1.3,5.1C409.3,360.9,411.2,359.7,415,358.5"/>
			<path id="XMLID_10_" d="M415.5,356.7c-3.4-1.1-6.8-1.8-10.3-2.4c-1-0.2-2.3,0.5-2.2,1.8c0.2,1.9,0.9,3.8,1.4,5.6
				c0.2,0.7,0.9,1.4,1.7,1.4c3.3-0.4,6.2-1.8,9.4-2.8c2.1-0.7,1.2-4.2-0.9-3.5c-2.8,0.9-5.5,2.3-8.5,2.7l1.7,1.4
				c-0.2-0.7-0.4-1.4-0.6-2.2c-0.2-0.6-0.3-1.1-0.5-1.7c0-0.1-0.3-1.2-0.2-0.8c-0.7,0.6-1.5,1.2-2.2,1.8c3.5,0.6,6.9,1.3,10.3,2.4
				C416.7,361,417.6,357.4,415.5,356.7"/>
			<path id="XMLID_9_" d="M379,268.4c0,4.8-4.9,14.6-9.4,14.6c-4.5,0-6.8-9.8-6.8-14.6c0-4.8,3.6-8.6,8.1-8.6
				C375.3,259.8,379,263.6,379,268.4"/>
			<path id="XMLID_8_" d="M444.3,280c0,4.8,1,19.7-8.2,19.5c-8-0.1-12-12.9-11.1-20.8c0.6-4.7,6-14,12.4-14
				C441.9,264.8,444.3,271.4,444.3,280"/>
			<path id="XMLID_7_" d="M380.7,305.6c2.7,3.1,4.2,6.9,1.3,9.2c-3.8,3-10.5,1.3-12.4-2c-1.9-3.3-2.3-8.6,0.8-10.6
				C373.4,300.2,378.2,302.8,380.7,305.6"/>
			<path id="XMLID_6_" d="M456.5,279.8c-2.7-1.1-4.2-6.6-3.1-9.4c1.5-3.8,5.6-1.9,7.9-0.6c2.3,1.2,4.4,4.5,3,7.3
				C463,279.8,459.9,281.2,456.5,279.8"/>
			<path id="XMLID_5_" d="M353.4,283.7c-3.7,1.2-5.4-0.7-5.6-2.9c-0.3-2.6,1.8-4.1,3.6-4.8c1.8-0.7,4.4-0.3,5.1,1.8
				C357.2,279.9,355.7,282.9,353.4,283.7"/>
			<path id="XMLID_4_" d="M379.5,228.2c0.9-2.1,2.9-3.4,5.1-3.4c0.3,0,0.6,0,0.8,0.1c0.1-0.4,0.3-0.9,0.4-1.4
				c-0.4-0.1-0.8-0.1-1.3-0.1c-2.7,0-5.1,1.7-6.3,4.2c-1.3,3.1-0.6,6.6,1.8,8.7c0.3-0.3,0.6-0.7,0.9-1
				C379,233.6,378.4,230.7,379.5,228.2"/>
			<ellipse id="XMLID_3_" class="st4" cx="380.8" cy="228.7" rx="6.8" ry="7.2"/>
			<path id="XMLID_2_" d="M427.1,228.2c-0.9-2.1-2.9-3.4-5.1-3.4c-0.3,0-0.6,0-0.8,0.1c-0.1-0.4-0.3-0.9-0.4-1.4
				c0.4-0.1,0.8-0.1,1.3-0.1c2.7,0,5.1,1.7,6.3,4.2c1.3,3.1,0.6,6.6-1.8,8.7c-0.3-0.3-0.6-0.7-0.9-1
				C427.5,233.6,428.1,230.7,427.1,228.2"/>
			<ellipse id="XMLID_1_" class="st4" cx="425.7" cy="228.7" rx="6.8" ry="7.2"/>
		</g>
	</g>
	<path id="XMLID_91_" class="st5" d="M126.2,270.5c0,16.8-4.1,30.5-12.4,40.9c-8.9,11.1-21.1,16.6-36.7,16.6
		c-2.6,0-6.5-0.2-11.8-0.5c-5.3-0.3-9.2-0.5-11.8-0.5c-2.8,0-4.2,1.3-4.2,3.9c0,3.2,0.3,8,0.9,14.3s0.9,11.1,0.9,14.2
		c0,1.6-0.7,2.4-2.1,2.4c-4,0-10-0.1-17.9-0.4c-8-0.2-13.9-0.4-17.9-0.4c-1.9,0-2.8-1-2.8-3c0-7.7,0.1-19.3,0.3-34.8
		c0.2-15.5,0.3-27.1,0.3-34.8c0-21.9-0.9-44.8-2.6-68.9l-0.1-1.5c-0.1-1.3,0.8-2.1,2.9-2.4c5.1-0.7,16.3-1,33.7-1
		c10.2,0,20.1,0.1,29.5,0.4c15.5,0.5,27.9,5.7,37.4,15.6C121.3,240.8,126.2,254.1,126.2,270.5z M87.1,272.2
		c0-16.2-7.4-24.3-22.2-24.3c-10.4,0-15.9,0.6-16.4,1.9c-0.5,0.9-0.7,8.9-0.7,24.1c0,2.2,0.1,5.3,0.2,9.6c0.2,4.2,0.2,7.4,0.2,9.5
		c0,1.4,5.9,2.1,17.6,2.1C80,295.1,87.1,287.5,87.1,272.2z"/>
	<path id="XMLID_89_" class="st5" d="M222.1,285.5l-0.2,72c0,2.4-0.9,3.8-2.7,4.1c-2.1,0.3-6.9,0.4-14.3,0.4c-7.2,0-12.2-0.3-15-0.8
		c-2.2-0.4-3.2-1.9-3.2-4.5c0-6,0.1-15,0.3-27c0.2-12,0.3-21,0.3-27c0-8.1-3.9-12.2-11.6-12.2c-2.6,0-5.7,1.1-9.2,3.3
		c-3.9,2.4-5.8,5-5.8,7.6v25.8c0,3.3,0.1,8.4,0.2,15.1c0.1,6.7,0.2,11.7,0.2,15.1c0,2.6-1,4-3,4.3c-2,0.3-7.7,0.4-17,0.4
		c-5.4,0-9.2-0.3-11.5-0.8c-2.3-0.6-3.5-1.8-3.5-3.7c0-5.5,0-13.8,0.1-24.8c0.1-11,0.1-19.3,0.1-24.8c0-22.8-0.2-41.6-0.7-56.5
		c-0.2-5.2-0.4-10.4-0.5-15.7c-0.3-6.1-0.9-11.2-1.8-15.6c-0.2-0.9-0.3-1.6-0.3-2c0-1,0.5-1.7,1.5-2.1c2-0.6,5-1,8.9-1.1
		c5.2-0.2,8.3-0.4,9.1-0.5l17.7-2.2c1,0,1.6,0.7,1.6,2.2c0,2.2-0.1,5.3-0.4,9.1c-0.3,4.5-0.4,7.5-0.4,9.1
		c-0.4,15.7-0.6,28.2-0.6,37.3c0,1.4,0.3,2.1,1,2.1c0.1,0,1.8-1.2,5-3.7c3.8-2.9,7.4-5.1,10.9-6.8c5.2-2.4,10.1-3.7,15-3.7
		c8.4,0,15.3,2.3,20.9,7C219.1,269.9,222.1,276.8,222.1,285.5z"/>
	<path id="XMLID_86_" class="st5" d="M323.2,309c0,5.4,0.3,13.3,0.9,23.9c0.6,10.6,0.9,18.5,0.9,23.8c0,2.8-1.1,4.3-3.4,4.5
		c-8.1,0.6-17.4,0.9-27.8,0.9c-1.2,0-2.1-2-2.5-6c-0.4-4-0.9-6-1.5-6.1c-0.5,0.3-1.2,0.9-2.1,1.8c-7.3,7.9-15.1,11.8-23.5,11.8
		c-12.7,0-23.3-5.4-31.6-16.1c-7.9-10-11.8-22-11.8-35.9c0-16.1,4.1-29,12.2-38.8c8.5-10.2,20.1-15.2,34.8-15.2
		c10.2,0,18.3,3.8,24.3,11.5c0.3,0.4,0.5,0.5,0.7,0.5c0.6,0,1.3-1.7,2-5.1c0.7-3.4,1.6-5.1,2.7-5.1c2.4,0,7,0.7,13.8,2.2
		c6.5,1.4,11.1,2.6,13.9,3.5c1,0.4,1.5,1,1.5,1.7c0,0.3-0.1,1-0.3,2.2C324.2,281.6,323.2,294.9,323.2,309z M291.7,309.6
		c0-5.9-1.7-10.8-5.2-14.7c-3.5-3.9-8-5.8-13.7-5.8c-5.6,0-10.1,1.9-13.6,5.7c-3.5,3.8-5.2,8.7-5.2,14.7c0,5.6,1.8,10.5,5.5,14.5
		c3.7,4,8.1,6.1,13.3,6.1c5.5,0,10.1-1.9,13.6-5.8C289.9,320.5,291.7,315.6,291.7,309.6z"/>
	<path id="XMLID_81_" class="st5" d="M569.8,303.4c0,7-2.1,11-6.4,12c-0.7,0.1-7.5,0.9-20.3,2.3c-7.7,0.9-19.2,2-34.5,3.2
		c0.9,4.5,3.7,8,8.3,10.3c3.8,1.9,8.1,2.9,12.9,2.9c5.8,0,11.6-1.7,17.5-5c2.5-1.7,5-3.3,7.4-5c1.4,0.7,3.7,4.2,6.9,10.6
		c3.2,6.4,4.8,10.5,4.8,12.2c0,0.5-0.5,1.3-1.5,2.4c-8,9.1-20.3,13.7-37.1,13.7c-15.5,0-28.1-4.8-37.6-14.5
		c-9.8-9.8-14.7-22.9-14.7-39.4c0-16,4.4-29.1,13.1-39.4c9-10.6,20.9-15.9,35.8-15.9c12.5,0,23.2,4.9,31.9,14.6
		C565.4,278.4,569.8,290,569.8,303.4z M535.5,297.1c0-4.3-1.4-8.1-4.3-11.4c-2.9-3.3-6.3-4.9-10.3-4.9c-4.1,0-7.5,1.8-10.2,5.5
		c-2.5,3.4-3.7,7.4-3.7,12c0,1.9,0.9,2.8,2.7,2.8c4.8,0,12.3-0.8,22.5-2.4C534.4,298.4,535.5,297.8,535.5,297.1z"/>
	<path id="XMLID_79_" class="st5" d="M629.7,291.4c-0.1,0-2-0.6-5.9-1.7c-3.9-1.1-7-1.7-9.4-1.7c-5.8,0-10.4,1.9-13.9,5.6
		c-3.5,3.7-5.2,8.7-5.2,14.9c0,6.4,1.9,11.4,5.7,15.1c3.8,3.7,8.7,5.5,14.8,5.5c2.9,0,6.1-0.8,9.7-2.3c3.6-1.6,5.3-2.3,5.1-2.3
		c1.1,0,2.5,4.4,4.3,13.3c1.5,8.1,2.3,13.4,2.3,16.1c0,2.6-4,4.9-12.1,6.8c-6.3,1.5-11.3,2.2-15.2,2.2c-14.4,0-26.2-5.1-35.5-15.5
		c-9.3-10.3-14-23.1-14-38.5c0-15.2,4.7-28.1,14-38.5c9.4-10.4,21.2-15.6,35.5-15.6c9.7,0,18.3,2.2,25.6,6.7c1.7,1,2.5,1.9,2.5,2.8
		s-1,5-2.9,12.3c-1.8,7-3,11.3-3.6,12.7C630.8,290.7,630.2,291.4,629.7,291.4z"/>
	<path id="XMLID_77_" class="st5" d="M733.9,285.7l-0.2,72c0,2.4-0.9,3.8-2.7,4.1c-2.1,0.3-6.9,0.4-14.3,0.4c-7.2,0-12.2-0.3-15-0.8
		c-2.2-0.4-3.2-1.9-3.2-4.5c0-6,0.1-15,0.3-27c0.2-12,0.3-21,0.3-27c0-8.1-3.9-12.2-11.6-12.2c-2.6,0-5.7,1.1-9.2,3.3
		c-3.9,2.4-5.8,5-5.8,7.6v25.8c0,3.3,0.1,8.4,0.2,15.1c0.1,6.7,0.2,11.7,0.2,15.1c0,2.6-1,4-3,4.3c-2,0.3-7.7,0.4-17,0.4
		c-5.4,0-9.2-0.3-11.5-0.8c-2.3-0.6-3.5-1.8-3.5-3.7c0-5.5,0-13.8,0.1-24.8c0.1-11,0.1-19.3,0.1-24.8c0-22.8-0.2-41.6-0.7-56.5
		c-0.2-5.2-0.4-10.4-0.5-15.7c-0.3-6.1-0.9-11.2-1.8-15.6c-0.2-0.9-0.3-1.6-0.3-2c0-1,0.5-1.7,1.5-2.1c2-0.6,5-1,8.9-1.1
		c5.2-0.2,8.3-0.4,9.1-0.5l17.7-2.2c1,0,1.6,0.7,1.6,2.2c0,2.2-0.1,5.3-0.4,9.1c-0.3,4.5-0.4,7.5-0.4,9.1
		c-0.4,15.7-0.6,28.2-0.6,37.3c0,1.4,0.3,2.1,1,2.1c0.1,0,1.8-1.2,5-3.7c3.8-2.9,7.4-5.1,10.9-6.8c5.2-2.4,10.1-3.7,15-3.7
		c8.4,0,15.3,2.3,20.9,7C730.9,270.2,733.9,277,733.9,285.7z"/>
	<path id="XMLID_75_" class="st5" d="M830.3,287c0,13.5-0.4,21.7-1.2,24.6c-1,3.5-8.1,16.1-21.4,37.8c-2.1,3.4-7.5,11.3-16.1,23.7
		c-9.6,13.6-15,20.8-16.3,21.6c-1.6,1-11.6,1.6-30,1.6c-2.8,0-4.7-0.4-5.7-1c-0.9-2.9-1.9-6.2-3.2-10.1c-1-2.4-2.1-4.9-3.1-7.4
		c-1.5-3.6-2.3-6-2.3-7.2c0-1.3,0.6-2,1.7-2c18.1,0,27.2-4.4,27.2-13.3c0-0.8-4.4-7.7-13.3-20.8c-9.2-13.4-14.3-21.9-15.2-25.5
		c-0.5-2-0.8-9.2-0.8-21.6c0-2.5,0.1-6.3,0.2-11.3c0.1-5,0.2-8.8,0.2-11.3c0-1.8,1.1-2.7,3.2-2.7c3.3,0,8.4,0.1,15.1,0.3
		c6.8,0.2,11.8,0.3,15.1,0.3c1.4,0,2.1,1.1,2.1,3.2c0,1.9-0.1,4.9-0.3,8.8c-0.2,3.9-0.3,6.9-0.3,8.8c0,8.8,0.1,14.7,0.4,17.9
		c0.2,2.4,2.2,7,5.9,13.6c3.9,6.9,6.8,10.3,8.5,10.3c1.5,0,4-3.4,7.6-10.2c3.3-6.5,5.1-10.8,5.4-13.1c0.7-6.1,1-12.8,1-19.9
		c0-1.9-0.2-4.7-0.5-8.6c-0.3-3.8-0.5-6.7-0.5-8.7c0-1.3,0.7-2,2.1-2c3.3,0,8.3-0.1,14.9-0.4s11.6-0.4,14.9-0.4
		c1.7,0,2.8,0.9,3.4,2.7C829.8,267.9,830.3,275.3,830.3,287z"/>
</g>
</svg>
